PathFileType	4	(X/Y/Z)	../Python\walking\Walking20\task.trc
DataRate	CameraRate	NumFrames	NumMarkers	Units	OrigDataRate	OrigDataStartFrame	OrigNumFrames
200.000000	200.000000	4	30	mm	200.000000	121	485
Frame#	Time	CLAV			STRN			RASI			LASI			PE01			RTH1			RTH2			RTH3			RTB1			RHEE			RD5M			RTOE			LTH2			LTH3			LTB1			LTB2			LTB3			LHEE			LTOE			LD5M			RTB3			RBAK			RTB2			C7			RPSI			LPSI			PE03			PE02			LTH1			T10			
		X1	Y1	Z1	X2	Y2	Z2	X3	Y3	Z3	X4	Y4	Z4	X5	Y5	Z5	X6	Y6	Z6	X7	Y7	Z7	X8	Y8	Z8	X9	Y9	Z9	X10	Y10	Z10	X11	Y11	Z11	X12	Y12	Z12	X13	Y13	Z13	X14	Y14	Z14	X15	Y15	Z15	X16	Y16	Z16	X17	Y17	Z17	X18	Y18	Z18	X19	Y19	Z19	X20	Y20	Z20	X21	Y21	Z21	X22	Y22	Z22	X23	Y23	Z23	X24	Y24	Z24	X25	Y25	Z25	X26	Y26	Z26	X27	Y27	Z27	X28	Y28	Z28	X29	Y29	Z29	X30	Y30	Z30	

122	0.605	-703.4932861328127	1227.372192382813	168.1898040771485	-640.1418457031252	1043.225952148438	169.9062042236329	-672.7208251953127	846.9520874023442	323.2633666992189	-658.746276855469	843.913208007813	93.74133300781253	-859.1796264648442	921.0541381835942	202.029754638672	-811.967895507813	570.7016601562502	336.9950256347657	-817.1661987304692	494.2932434082034	314.5191650390626	-775.050659179688	538.7752075195315	322.5913696289064	-883.574096679688	277.0402221679689	287.2351684570314	-1056.441040039063	45.17665863037111	202.0983123779298	-908.7050781250005	13.82782459259034	268.8380737304689	-869.3087768554692	28.03927612304689	214.5730743408204	-649.4776000976565	525.3369140625002	78.72476959228518	-598.2071533203127	577.9978637695315	49.17574310302737	-533.2341308593752	275.4859924316407	79.53763580322268	-500.9190673828127	203.3564910888673	89.64421081542972	-478.6376953125002	247.4196319580079	89.40765380859378	-443.0475769042971	31.29802322387697	148.885726928711	-269.9011535644532	111.7434997558594	135.453109741211	-296.8268127441407	77.38112640380862	95.11653137207034	-919.8081665039067	207.4944610595704	277.1940307617189	-850.2692871093755	1224.87744140625	309.3400878906251	-938.0211791992192	251.5464477539064	295.4878540039064	-827.170776367188	1318.292114257813	191.3369598388672	-868.2363891601567	889.840209960938	251.2787933349611	-864.2478637695317	879.1440429687505	166.1648864746094	-875.1365356445317	860.6489257812505	176.5494079589844	-881.0208129882817	863.1422729492192	226.7907714843751	-648.2052001953127	582.1048583984377	54.30444335937503	-850.321655273438	1020.712463378907	208.296844482422	
123	0.61	-696.453796386719	1226.030151367188	167.9047088623047	-633.0255126953127	1041.906005859375	170.0266418457032	-665.828308105469	845.6381835937505	323.5409545898439	-651.3553466796877	842.9539184570317	93.87941741943362	-851.8007812500005	920.0225219726567	201.7889251708986	-806.7088012695317	570.0776367187502	337.0572814941407	-812.1889648437505	493.6555786132815	314.6558532714845	-769.8894653320317	537.9124145507815	322.8391418457032	-880.7050170898442	276.9040527343751	287.4492187500001	-1056.080200195313	47.02070236206056	202.2768402099611	-908.742553710938	13.83712577819825	268.8375244140626	-869.1906127929692	28.0077304840088	214.6123657226564	-642.121520996094	524.4595336914065	79.30235290527347	-591.0122070312502	577.0119628906252	48.52371597290042	-525.0446777343752	274.8289184570314	80.4092712402344	-492.827819824219	202.7226562500001	90.71073150634768	-470.548034667969	246.8199157714845	90.65552520751956	-435.319274902344	30.72570800781251	150.2203826904297	-262.1641235351564	111.2781677246094	138.0710754394532	-288.7623901367189	76.93542480468753	97.50940704345709	-917.6569213867192	207.7753295898439	277.331512451172	-843.4899902343755	1223.710327148438	308.9479064941407	-935.473510742188	252.0676727294923	295.5615844726564	-820.2712402343755	1317.060791015625	190.8416290283204	-861.149780273438	888.7822875976567	250.9251403808595	-856.9998168945317	878.0707397460942	165.9330444335938	-867.8390502929692	859.7517700195317	176.0688476562501	-873.9796752929692	862.1260375976567	226.2776641845704	-641.115173339844	581.040710449219	54.4596862792969	-843.2720336914067	1019.48876953125	208.212860107422	
124	0.615	-689.3836059570315	1224.770751953125	167.6040191650391	-625.8660278320315	1040.676025390625	170.1246337890626	-658.873229980469	844.3656616210942	323.8008117675782	-643.942321777344	842.0938110351567	94.0058517456055	-844.3810424804692	919.0732421875005	201.6076965332032	-801.336547851563	569.468200683594	337.0964660644532	-807.0906372070317	493.0263671875002	314.7717590332032	-764.6131591796877	537.0686035156252	323.0469055175782	-877.7587890625005	276.8235168457032	287.665252685547	-1055.671752929688	48.99274826049808	202.5037384033204	-908.7695922851567	13.84846210479737	268.8388977050782	-869.0615234375005	27.98317527770998	214.6524200439454	-634.5191040039065	523.7508544921877	79.82995605468753	-583.559509277344	576.2579345703127	48.05389022827151	-517.1544189453127	274.1988830566407	81.31936645507815	-485.2319030761721	202.0404052734376	91.83795166015628	-462.8105773925784	246.1217651367189	91.93466949462893	-428.5484008789065	30.02000808715822	151.5395965576172	-255.2807617187501	110.1510543823243	140.7816009521485	-281.5792846679689	75.94043731689456	99.98219299316412	-915.4393920898442	208.1222229003907	277.4890136718751	-836.6762084960942	1222.617797851563	308.5397338867189	-932.8386230468755	252.6562500000001	295.6450500488282	-813.342407226563	1315.898803710938	190.3336334228516	-853.9965820312505	887.793579101563	250.6175079345704	-849.713989257813	877.0981445312505	165.7344665527344	-860.497192382813	858.9497070312505	175.6212921142579	-866.8788452148442	861.1775512695317	225.7983703613282	-633.7818603515627	580.1647949218752	54.66075134277347	-836.1641235351567	1018.339233398438	208.1601562500001	
125	0.62	-682.2837524414065	1223.600463867188	167.288314819336	-618.6633300781252	1039.5419921875	170.1986083984376	-651.8531494140627	843.138793945313	324.0383300781251	-636.5073852539065	841.3366699218755	94.11711883544925	-836.9228515625005	918.2094726562505	201.4849090576173	-795.8488159179692	568.877624511719	337.1124572753907	-801.8716430664067	492.4098815917971	314.8680725097657	-759.220886230469	536.2474365234377	323.2174682617189	-874.729614257813	276.8018493652345	287.8865661621095	-1055.2119140625	51.0989799499512	202.7832641601564	-908.7850952148442	13.86132907867432	268.8428039550782	-868.921997070313	27.96628952026369	214.6949157714845	-626.6713867187502	523.2100830078127	80.297233581543	-575.8422851562502	575.7305297851565	47.78427886962892	-509.556579589844	273.601287841797	82.2719421386719	-478.1082458496096	201.3201751708986	93.0224533081055	-455.4088439941409	245.3376464843751	93.23636627197268	-422.6861877441409	29.21304130554201	152.8208312988282	-249.2027587890626	108.3772430419922	143.5698547363282	-275.232391357422	74.41069030761722	102.5174942016602	-913.1527709960942	208.5397491455079	277.670623779297	-829.8278808593755	1221.60498046875	308.1170654296876	-930.1125488281255	253.3163299560548	295.7418823242189	-806.3850097656255	1314.81103515625	189.8142089843751	-846.7771606445317	886.8767089843755	250.3558654785157	-842.390258789063	876.229614257813	165.5679626464844	-853.1115722656255	858.2446899414067	175.2071075439454	-859.7170410156255	860.2993774414067	225.3535766601564	-626.1951904296877	579.4815673828127	54.90475082397464	-828.9985351562505	1017.268432617188	208.1373291015626	
